<?xml version="1.0" standalone="no"?>
<!DOCTYPE svg PUBLIC "-//W3C//DTD SVG 20010904//EN"
 "http://www.w3.org/TR/2001/REC-SVG-20010904/DTD/svg10.dtd">
<svg version="1.0" xmlns="http://www.w3.org/2000/svg"
 width="625.000000pt" height="625.000000pt" viewBox="0 0 625.000000 625.000000"
 preserveAspectRatio="xMidYMid meet">

<g transform="translate(0.000000,625.000000) scale(0.100000,-0.100000)"
fill="#000000" stroke="none">
<path d="M3105 6121 c-19 -6 -43 -17 -140 -62 -22 -10 -107 -49 -190 -87 -228
-105 -800 -385 -803 -394 -2 -5 -11 -8 -19 -8 -9 0 -147 -67 -307 -149 -160
-81 -381 -191 -491 -244 -110 -52 -291 -138 -402 -191 -111 -53 -206 -96 -212
-96 -35 0 -38 -111 -21 -1015 5 -297 17 -904 25 -1350 8 -445 17 -860 21 -921
l6 -110 126 -64 c196 -98 1933 -937 2379 -1150 l131 -62 344 182 c499 266
1922 1030 2070 1113 120 66 128 72 135 106 4 20 7 763 7 1651 l1 1615 -180 92
c-99 50 -241 120 -315 154 -171 79 -864 415 -1255 609 -361 179 -550 267 -710
330 -129 51 -168 61 -200 51z m132 -342 c49 -23 115 -55 148 -71 127 -65 779
-378 786 -378 4 0 190 -90 414 -200 223 -110 409 -200 413 -200 10 1 280 -134
281 -140 1 -9 -1880 -963 -2029 -1029 l-75 -32 -410 196 c-226 108 -493 237
-595 287 -102 50 -232 112 -290 138 -169 76 -724 342 -740 355 -8 7 -37 22
-65 34 l-50 22 67 37 c36 20 176 90 310 156 134 65 581 286 993 492 413 205
751 373 752 373 2 1 42 -17 90 -40z m2229 -1346 c8 -88 -3 -2349 -13 -2543
l-6 -125 -1036 -556 -1036 -555 -7 60 c-5 51 -13 647 -30 2479 l-3 269 433
216 c238 120 445 224 461 232 16 8 70 36 120 63 50 26 91 45 91 42 0 -3 225
108 500 245 276 138 505 250 509 250 5 0 13 -35 17 -77z m-4362 -62 c253 -120
1307 -626 1727 -829 l186 -89 7 -104 c9 -155 28 -2025 24 -2391 l-3 -317 -420
200 c-231 110 -720 344 -1087 521 l-666 320 -6 122 c-3 66 -13 558 -21 1091
-9 534 -18 1113 -22 1288 -3 174 -3 317 2 317 4 0 130 -58 279 -129z"/>
<path d="M3006 5600 c-144 -56 -143 -165 3 -220 112 -43 294 -20 363 47 61 58
26 133 -81 173 -70 27 -216 27 -285 0z"/>
<path d="M4473 4889 c-97 -37 -131 -114 -78 -178 81 -96 359 -96 440 0 54 65
19 141 -81 178 -74 28 -208 28 -281 0z"/>
<path d="M1632 4883 c-115 -34 -155 -115 -89 -177 125 -118 467 -71 467 64 0
102 -206 164 -378 113z"/>
<path d="M3016 4880 c-144 -56 -143 -165 3 -220 71 -28 211 -28 282 0 147 55
147 165 0 220 -70 27 -216 27 -285 0z"/>
<path d="M3019 4174 c-105 -32 -142 -115 -78 -175 41 -39 115 -59 214 -59 99
0 173 20 214 59 65 61 27 144 -82 176 -63 19 -206 18 -268 -1z"/>
<path d="M4629 3685 c-36 -7 -88 -24 -115 -38 -27 -13 -149 -68 -272 -121
-123 -54 -283 -130 -355 -169 -73 -39 -158 -84 -190 -100 -32 -17 -62 -38 -67
-48 -12 -21 7 -2210 19 -2222 8 -8 463 231 489 256 10 10 10 51 2 198 -6 101
-12 234 -15 294 -2 61 -7 157 -10 215 -5 97 -3 108 17 141 24 37 152 160 185
177 46 23 135 34 239 30 93 -3 115 -7 152 -28 66 -38 103 -111 113 -219 11
-120 55 -391 65 -401 5 -5 80 31 167 78 121 67 159 93 164 111 3 13 1 103 -6
200 -22 324 -31 398 -55 454 -13 29 -31 73 -40 99 -21 58 -67 104 -112 113
-28 5 -34 10 -34 31 0 27 57 134 71 134 15 0 48 76 65 147 12 51 15 104 12
213 l-5 145 -38 69 c-55 100 -164 207 -238 235 -65 24 -112 25 -208 6z m93
-464 c32 -29 33 -31 33 -113 0 -70 -4 -92 -28 -143 -35 -75 -63 -106 -153
-164 -96 -64 -386 -211 -448 -227 -48 -13 -52 -13 -68 7 -16 19 -18 45 -18
213 0 138 4 197 13 209 6 8 59 34 117 55 58 22 155 64 215 92 136 65 230 99
272 100 22 0 43 -9 65 -29z"/>
<path d="M1630 3720 c-14 -4 -40 -8 -57 -9 -40 -1 -191 -44 -235 -67 -39 -20
-152 -103 -157 -116 -1 -5 -19 -30 -38 -55 -45 -59 -82 -192 -119 -423 -13
-82 -16 -139 -11 -267 10 -243 29 -352 90 -508 90 -231 114 -269 277 -440 239
-250 256 -265 401 -342 74 -40 145 -79 159 -87 14 -8 65 -33 114 -56 119 -55
201 -66 363 -49 68 7 126 10 129 6 4 -4 9 -59 11 -124 2 -65 8 -122 13 -127 7
-7 89 -43 203 -89 35 -15 50 3 42 48 -13 77 -25 526 -24 878 1 213 0 389 -2
391 -5 5 -464 220 -622 292 -65 30 -125 54 -133 54 -19 0 -21 -372 -1 -387 6
-6 81 -46 165 -89 119 -61 158 -86 174 -111 11 -18 24 -33 28 -33 13 0 30 -67
30 -115 0 -53 -17 -75 -84 -109 -54 -27 -61 -28 -159 -24 -96 5 -107 8 -198
52 -54 26 -117 65 -140 86 -178 161 -228 219 -267 305 -13 28 -30 64 -39 80
-9 17 -19 46 -24 65 -4 19 -15 55 -24 80 -25 68 -44 220 -45 357 0 119 1 125
34 195 37 79 73 160 86 194 12 31 95 82 146 90 111 16 248 -35 376 -141 118
-97 188 -204 228 -346 11 -39 21 -73 23 -75 8 -9 471 -224 481 -224 0 0 0 39
-2 87 -2 49 -14 138 -27 198 -14 61 -29 138 -34 171 -25 161 -236 443 -441
590 -166 118 -249 153 -417 173 -51 6 -104 16 -119 21 -30 12 -118 12 -154 0z"/>
</g>
</svg>
