<?xml version="1.0" standalone="no"?>
<!DOCTYPE svg PUBLIC "-//W3C//DTD SVG 20010904//EN"
 "http://www.w3.org/TR/2001/REC-SVG-20010904/DTD/svg10.dtd">
<svg version="1.0" xmlns="http://www.w3.org/2000/svg"
 width="500.000000pt" height="500.000000pt" viewBox="0 0 500.000000 500.000000"
 preserveAspectRatio="xMidYMid meet">
<metadata>
Created by potrace 1.15, written by Peter Selinger 2001-2017
</metadata>
<g transform="translate(0.000000,500.000000) scale(0.100000,-0.100000)"
fill="#000000" stroke="none">
<path d="M2455 4879 c-16 -10 -37 -19 -46 -19 -9 0 -22 -7 -29 -15 -7 -8 -22
-15 -35 -15 -12 0 -441 -207 -954 -460 -513 -253 -938 -460 -946 -460 -22 0
-34 -24 -35 -75 -2 -154 43 -2631 49 -2637 6 -7 2100 -1018 2107 -1018 2 0
345 183 762 406 416 224 870 467 1007 541 138 74 255 139 262 146 9 9 13 311
13 1320 1 720 0 1311 -2 1313 -12 11 -1883 924 -1895 924 -8 0 -48 16 -89 35
-83 39 -125 43 -169 14z m930 -635 c468 -229 852 -418 854 -420 2 -2 -313
-161 -701 -353 -388 -192 -711 -355 -719 -363 -8 -7 -34 -22 -59 -32 -25 -11
-82 -37 -128 -58 -45 -21 -86 -38 -91 -38 -12 0 -105 42 -223 101 -57 28 -418
202 -803 386 -385 184 -703 338 -707 342 -8 7 1686 849 1712 850 9 1 398 -186
865 -415z m995 -956 c0 -183 -3 -680 -7 -1105 l-6 -772 -838 -449 -837 -449
-6 131 c-3 72 -8 482 -11 911 -3 429 -8 878 -11 997 l-7 217 852 425 c469 235
856 426 861 426 6 0 10 -128 10 -332z m-2842 -99 c482 -231 880 -423 883 -427
7 -7 32 -2252 26 -2258 -3 -4 -1747 832 -1756 841 -2 2 -9 381 -16 842 -8 461
-16 970 -20 1131 -3 160 -3 292 0 292 4 0 401 -189 883 -421z"/>
<path d="M2370 4574 c-59 -21 -128 -60 -145 -82 -11 -15 -20 -43 -20 -64 0
-47 30 -79 110 -122 60 -31 61 -31 215 -31 147 0 158 1 212 27 59 28 98 73 98
114 0 42 -43 88 -115 124 -68 34 -72 35 -205 37 -74 1 -142 0 -150 -3z"/>
<path d="M2305 3951 c-71 -37 -100 -72 -100 -123 0 -48 40 -91 120 -129 58
-28 65 -29 215 -29 l155 1 60 32 c129 69 121 171 -19 245 -48 25 -60 27 -211
30 l-160 3 -60 -30z"/>
<path d="M3590 3974 c-59 -21 -128 -60 -145 -82 -11 -15 -20 -43 -20 -64 0
-47 30 -79 110 -122 60 -31 61 -31 215 -31 147 0 158 1 212 27 59 28 98 73 98
114 0 42 -43 88 -115 124 -68 34 -72 35 -205 37 -74 1 -142 0 -150 -3z"/>
<path d="M1180 3964 c-59 -21 -128 -60 -145 -82 -11 -15 -20 -43 -20 -64 0
-47 30 -79 110 -122 60 -31 61 -31 215 -31 147 0 158 1 212 27 59 28 98 73 98
114 0 42 -43 88 -115 124 -68 34 -72 35 -205 37 -74 1 -142 0 -150 -3z"/>
<path d="M2293 3350 c-68 -34 -103 -77 -103 -128 0 -39 35 -68 147 -124 79
-39 92 -43 182 -46 164 -6 287 40 327 123 29 62 -7 120 -104 167 -66 32 -69
33 -227 36 l-160 3 -62 -31z"/>
<path d="M3955 3133 c-91 -9 -174 -42 -610 -250 -258 -123 -476 -230 -484
-238 -11 -11 -12 -159 -5 -958 5 -520 12 -948 16 -952 8 -8 430 209 448 230
10 12 12 90 11 340 l-2 324 163 82 c183 92 217 103 247 83 58 -41 75 -101 101
-378 6 -59 17 -121 26 -138 l15 -29 157 82 c86 45 183 95 214 111 64 34 74 49
54 81 -22 33 -36 116 -47 267 -18 258 -56 366 -145 411 l-51 26 24 29 c107
130 175 331 175 519 1 215 -74 334 -222 352 -19 2 -39 5 -45 6 -5 2 -23 1 -40
0z m-174 -549 c44 -40 47 -121 7 -214 -36 -85 -89 -125 -308 -235 l-147 -74
-6 112 c-4 62 -7 146 -7 187 l0 76 148 71 c214 103 269 117 313 77z"/>
<path d="M1110 3127 c-127 -36 -229 -124 -290 -252 -49 -102 -68 -180 -81
-331 -33 -386 110 -837 370 -1159 65 -81 162 -180 220 -225 18 -14 41 -33 53
-42 11 -10 29 -20 39 -23 11 -4 19 -10 19 -15 0 -6 55 -36 123 -68 186 -89
294 -102 412 -48 30 13 56 22 59 18 2 -4 7 -42 11 -85 l7 -79 151 -74 c83 -41
154 -71 158 -66 7 7 -5 1080 -12 1087 -9 8 -686 326 -706 331 l-23 6 0 -185
c0 -102 3 -193 6 -201 4 -9 71 -48 150 -86 79 -38 144 -75 144 -82 0 -22 -38
-76 -67 -95 -18 -12 -48 -19 -90 -20 -147 -4 -304 86 -409 233 -107 150 -174
425 -154 631 16 172 66 269 157 309 87 38 219 -8 345 -122 83 -73 139 -167
162 -269 l11 -49 219 -103 c121 -57 226 -101 233 -99 16 7 11 48 -24 196 -65
269 -215 503 -463 720 -92 80 -321 207 -419 232 -20 5 -50 13 -67 17 -49 13
-195 11 -244 -2z"/>
</g>
</svg>
