<?xml version="1.0" standalone="no"?>
<!DOCTYPE svg PUBLIC "-//W3C//DTD SVG 20010904//EN"
 "http://www.w3.org/TR/2001/REC-SVG-20010904/DTD/svg10.dtd">
<svg version="1.0" xmlns="http://www.w3.org/2000/svg"
 width="1250.000000pt" height="1250.000000pt" viewBox="0 0 1250.000000 1250.000000"
 preserveAspectRatio="xMidYMid meet">
<metadata>
Created by potrace 1.13, written by Peter Selinger 2001-2015
</metadata>
<g transform="translate(0.000000,1250.000000) scale(0.100000,-0.100000)"
fill="#FFFFFF" stroke="none">
<path d="M6240 12245 c-8 -10 -25 -15 -41 -13 -17 2 -37 -5 -51 -18 -36 -32
-115 -67 -137 -61 -11 3 -25 -1 -32 -9 -6 -8 -17 -14 -24 -14 -7 0 -18 -7 -25
-15 -17 -21 -77 -48 -89 -41 -5 4 -12 2 -16 -4 -9 -14 -75 -44 -82 -36 -3 3
-12 1 -20 -5 -24 -21 -226 -118 -233 -114 -5 3 -10 -2 -14 -10 -3 -8 -11 -12
-19 -9 -8 3 -20 -2 -27 -10 -7 -9 -17 -13 -22 -10 -10 6 -514 -242 -524 -257
-3 -5 -10 -7 -15 -3 -10 6 -835 -401 -845 -417 -3 -5 -10 -7 -15 -3 -16 9 -76
-24 -82 -45 -3 -14 -11 -18 -26 -14 -15 4 -118 -43 -336 -152 -174 -87 -317
-161 -320 -165 -3 -4 -121 -65 -262 -136 -142 -70 -261 -134 -266 -141 -4 -7
-14 -10 -21 -7 -7 3 -16 -2 -20 -11 -3 -10 -12 -15 -21 -11 -8 3 -15 1 -15 -4
0 -12 -107 -63 -119 -56 -5 4 -12 2 -15 -3 -11 -17 -594 -303 -613 -300 -10 2
-25 -1 -33 -6 -54 -35 -544 -273 -554 -269 -6 2 -56 -18 -110 -46 -55 -27
-107 -50 -116 -50 -17 0 -36 -19 -56 -55 -13 -24 -10 -1328 3 -1332 4 -2 7
-260 5 -574 -3 -483 -1 -573 11 -587 12 -14 14 -109 16 -582 1 -345 6 -569 12
-576 6 -7 9 -203 9 -509 -1 -372 2 -501 11 -512 9 -11 11 -132 6 -512 -4 -328
-3 -501 4 -508 6 -6 10 -158 9 -421 0 -269 3 -413 10 -417 6 -4 10 -50 10
-109 l0 -104 454 -227 c250 -125 459 -224 465 -221 5 4 12 2 15 -3 10 -16 595
-303 605 -297 5 4 12 2 15 -3 8 -12 217 -116 234 -116 7 0 17 -6 21 -14 5 -7
14 -10 20 -7 6 4 14 1 17 -8 3 -8 12 -12 20 -9 7 3 16 -2 20 -10 3 -9 12 -13
20 -10 7 3 16 -2 20 -10 3 -9 12 -13 20 -10 7 3 16 -2 20 -10 3 -9 12 -13 20
-10 7 3 17 -2 20 -12 4 -9 13 -14 20 -11 8 3 14 1 14 -4 0 -11 60 -41 70 -35
4 3 11 -2 14 -11 4 -10 12 -14 23 -10 19 8 443 -200 443 -216 0 -6 7 -7 15 -4
9 3 18 -1 21 -9 3 -7 12 -11 20 -8 7 3 16 -2 20 -10 3 -9 12 -13 20 -10 7 3
16 -2 20 -10 3 -9 12 -13 20 -10 7 3 17 -2 20 -12 4 -9 13 -14 22 -10 18 7
362 -162 362 -177 0 -6 7 -8 15 -4 8 3 15 1 15 -4 0 -6 6 -10 13 -10 21 0 117
-51 117 -62 0 -6 8 -7 17 -4 16 7 556 -255 569 -275 3 -5 10 -7 15 -3 10 6
515 -241 525 -257 3 -5 10 -7 15 -3 10 6 435 -201 445 -217 3 -5 10 -7 15 -3
13 7 239 -104 239 -118 0 -6 7 -8 15 -4 8 3 15 1 15 -3 0 -10 97 -61 116 -61
17 0 138 63 150 79 6 8 16 11 21 8 6 -4 13 0 17 8 3 8 12 15 19 15 8 0 20 7
27 14 6 8 85 52 176 96 90 45 166 86 169 90 3 5 70 41 150 80 80 39 147 75
150 80 3 5 70 41 150 80 80 39 147 75 150 80 3 5 70 41 150 80 80 39 147 75
150 80 3 4 58 34 122 66 65 31 126 64 135 72 26 22 230 122 238 117 5 -3 10 2
14 10 3 8 12 15 19 15 8 0 22 9 32 20 10 12 25 18 32 16 8 -3 16 1 20 9 3 9
10 15 17 14 18 -3 66 20 66 31 0 6 4 9 9 6 9 -6 91 33 119 56 9 8 70 41 135
72 64 32 119 62 122 66 3 5 70 41 150 80 80 39 147 75 150 80 3 5 61 36 130
70 69 34 127 65 130 70 3 5 61 36 130 70 69 34 127 65 130 70 3 5 61 36 130
70 69 34 127 65 130 70 3 5 61 36 130 70 69 34 127 65 130 70 3 5 70 41 150
80 80 39 147 75 150 80 3 5 61 36 130 70 69 34 127 65 130 70 3 5 52 32 110
60 58 28 107 55 110 60 3 5 52 32 110 60 58 28 107 55 110 60 3 5 35 23 70 40
35 17 67 35 71 41 3 6 17 14 30 19 16 6 24 17 24 33 0 13 5 28 10 33 7 7 10
202 8 592 -2 475 -1 583 10 587 11 4 13 469 11 2677 -2 2666 -2 2673 -22 2695
-19 21 -300 168 -322 168 -15 0 -624 306 -631 316 -3 5 -10 7 -15 3 -11 -6
-195 81 -205 97 -3 5 -10 7 -15 3 -12 -7 -220 95 -232 113 -5 8 -13 10 -19 7
-6 -4 -16 -1 -22 7 -16 21 -143 82 -155 75 -5 -4 -12 -2 -15 3 -9 14 -876 444
-883 437 -3 -3 -12 -1 -20 5 -19 16 -665 339 -678 339 -14 0 -342 165 -363
182 -29 25 -512 261 -519 254 -3 -3 -14 1 -24 10 -10 9 -25 14 -33 11 -9 -4
-18 -2 -21 3 -7 11 -256 135 -273 135 -7 0 -17 6 -21 14 -5 7 -14 10 -20 6
-12 -7 -236 98 -246 116 -3 4 -12 6 -21 2 -8 -3 -23 2 -33 11 -10 9 -20 13
-24 10 -7 -8 -73 22 -82 36 -4 6 -11 8 -16 4 -10 -6 -115 41 -124 56 -3 4 -14
6 -24 3 -10 -3 -22 0 -25 6 -4 6 -18 11 -31 11 -13 0 -27 5 -30 10 -3 6 -25
10 -47 10 -23 0 -49 7 -58 15 -15 14 -18 14 -30 0z m215 -685 c87 -44 168 -80
180 -80 22 0 144 -58 173 -82 9 -8 115 -63 235 -122 119 -60 220 -112 223
-117 3 -5 10 -7 15 -3 13 7 159 -64 159 -78 0 -6 7 -8 15 -4 8 3 15 2 15 -3 0
-13 347 -184 359 -177 5 4 12 2 15 -3 11 -17 474 -243 493 -240 10 2 25 -1 33
-6 49 -31 385 -193 392 -189 4 3 8 0 8 -5 0 -6 6 -11 13 -11 14 0 179 -81 200
-98 8 -7 17 -9 20 -5 7 6 171 -71 199 -95 21 -18 229 -122 243 -122 6 0 127
-58 270 -130 143 -71 269 -130 280 -130 22 0 184 -78 213 -102 23 -20 302
-156 327 -160 11 -2 21 -10 23 -19 2 -12 -111 -73 -455 -244 -252 -126 -466
-235 -475 -243 -28 -23 -1111 -562 -1119 -556 -5 2 -15 -6 -24 -20 -9 -14 -22
-23 -30 -20 -7 3 -20 -5 -29 -18 -9 -12 -22 -23 -29 -23 -19 0 -547 -266 -547
-276 0 -4 -6 -6 -14 -3 -7 3 -16 -2 -19 -11 -5 -11 -14 -14 -30 -10 -17 5 -26
2 -31 -10 -3 -10 -12 -15 -21 -11 -8 3 -18 0 -22 -7 -5 -7 -129 -73 -278 -147
-148 -73 -278 -140 -287 -148 -22 -18 -509 -262 -524 -262 -6 0 -46 -18 -89
-40 -43 -22 -84 -40 -91 -40 -7 0 -29 -9 -49 -20 -20 -11 -41 -20 -48 -20 -7
0 -85 36 -172 80 -87 44 -164 80 -170 80 -6 0 -127 59 -270 130 -143 72 -264
130 -270 130 -13 0 -499 243 -518 259 -8 6 -17 8 -20 5 -7 -7 -234 103 -243
117 -3 5 -10 7 -15 3 -11 -6 -115 41 -124 56 -3 5 -35 23 -70 40 -35 17 -67
35 -70 40 -3 5 -11 7 -18 4 -7 -2 -129 54 -272 126 -142 71 -264 130 -271 130
-6 0 -46 18 -89 40 -43 22 -83 40 -90 40 -6 0 -74 32 -150 70 -76 39 -144 70
-150 70 -6 0 -109 50 -230 110 -121 61 -224 110 -230 110 -6 0 -127 59 -270
130 -143 72 -264 130 -271 130 -18 0 -70 29 -89 50 -20 22 -71 50 -90 50 -14
0 -98 42 -120 60 -19 15 -20 30 -2 30 16 0 99 41 122 60 30 24 1070 540 1090
540 11 0 189 84 395 188 206 103 380 187 385 187 20 0 1025 508 1025 518 0 6
3 7 7 4 3 -4 12 -2 20 4 12 11 1170 595 1184 598 3 1 77 -35 164 -79z m4463
-2610 c2 -36 7 -69 13 -74 13 -14 12 -2973 -1 -2981 -7 -4 -10 -358 -10 -1030
0 -672 -3 -1026 -10 -1030 -6 -4 -10 -68 -10 -160 l0 -153 -105 -52 c-57 -28
-107 -55 -110 -60 -3 -5 -61 -36 -130 -70 -69 -34 -127 -65 -130 -70 -3 -5
-70 -41 -150 -80 -80 -39 -147 -75 -150 -80 -3 -5 -61 -36 -130 -70 -69 -34
-127 -65 -130 -70 -3 -5 -70 -41 -150 -80 -80 -39 -147 -75 -150 -80 -3 -5
-61 -36 -130 -70 -69 -34 -127 -65 -130 -70 -3 -5 -70 -41 -150 -80 -80 -39
-147 -75 -150 -80 -3 -5 -61 -36 -130 -70 -69 -34 -127 -65 -130 -70 -3 -5
-61 -36 -130 -70 -69 -34 -127 -65 -130 -70 -3 -5 -70 -41 -150 -80 -80 -39
-147 -75 -150 -80 -3 -5 -61 -36 -130 -70 -69 -34 -127 -65 -130 -70 -3 -5
-70 -41 -150 -80 -80 -39 -147 -75 -150 -80 -3 -5 -61 -36 -130 -70 -69 -34
-127 -65 -130 -70 -3 -5 -61 -36 -130 -70 -69 -34 -127 -65 -130 -70 -3 -5
-70 -41 -150 -80 -80 -39 -147 -76 -150 -80 -5 -8 -63 -40 -72 -40 -1 0 -3 45
-3 99 0 56 -4 103 -10 106 -6 4 -10 188 -10 520 0 332 -4 516 -10 520 -7 4
-10 378 -10 1090 0 712 -3 1086 -10 1090 -7 4 -10 292 -10 830 0 538 -3 826
-10 830 -6 4 -10 105 -10 269 0 238 2 264 18 278 9 8 367 189 795 403 427 213
780 391 782 396 7 11 65 39 81 39 7 0 29 9 49 20 20 11 42 20 50 20 19 0 53
19 86 48 15 13 101 61 192 106 121 61 169 80 177 72 7 -7 13 -8 18 -1 10 16
1934 975 1954 975 9 0 20 5 23 11 4 5 14 9 23 7 13 -3 18 -17 20 -68z m-9223
30 c20 -11 41 -20 48 -20 7 0 94 -40 192 -90 98 -49 184 -90 190 -90 6 0 109
-49 230 -110 121 -60 224 -110 230 -110 6 0 109 -49 230 -110 121 -60 224
-110 230 -110 6 0 109 -49 230 -110 121 -60 224 -110 230 -110 6 0 118 -54
250 -120 132 -66 244 -120 250 -120 6 0 127 -58 270 -130 143 -71 264 -130
270 -130 6 0 118 -54 250 -120 132 -66 244 -120 250 -120 6 0 136 -63 290
-140 154 -77 284 -140 290 -140 13 0 380 -183 400 -200 12 -10 15 -36 15 -116
0 -58 4 -106 10 -109 6 -4 10 -228 10 -640 0 -412 4 -636 10 -640 7 -4 10
-282 10 -800 0 -518 3 -796 10 -800 10 -6 16 -2525 6 -2525 -2 0 -30 14 -61
30 -31 17 -62 30 -69 30 -7 0 -93 40 -191 90 -98 49 -184 90 -190 90 -6 0
-100 45 -210 100 -110 55 -204 100 -210 100 -6 0 -109 50 -230 110 -121 61
-224 110 -230 110 -6 0 -100 45 -210 100 -110 55 -204 100 -210 100 -6 0 -118
54 -250 120 -132 66 -244 120 -250 120 -6 0 -118 54 -250 120 -132 66 -244
120 -250 120 -6 0 -127 58 -270 130 -143 72 -264 130 -270 130 -6 0 -127 59
-270 130 -143 72 -264 130 -270 130 -5 0 -115 52 -242 116 l-233 116 0 114 c0
64 -4 115 -10 119 -6 4 -10 202 -10 560 0 358 -4 556 -10 560 -6 4 -10 215
-10 600 0 385 -4 596 -10 600 -6 4 -10 208 -10 580 0 372 -4 576 -10 580 -6 4
-10 195 -10 540 0 345 -4 536 -10 540 -11 7 -15 827 -3 838 10 11 20 9 58 -13z"/>
<path d="M6095 11220 c-3 -5 -17 -10 -30 -10 -13 0 -27 -4 -30 -10 -3 -5 -14
-10 -24 -10 -33 0 -114 -49 -168 -102 l-53 -52 0 -66 0 -66 53 -52 c54 -53
135 -102 168 -102 10 0 21 -4 24 -10 3 -5 17 -10 30 -10 13 0 27 -4 30 -10 4
-6 82 -10 200 -10 118 0 196 4 200 10 3 6 17 10 30 10 13 0 27 5 30 10 3 6 14
10 24 10 33 0 114 49 168 102 l53 52 0 68 0 67 -55 52 c-55 52 -134 99 -166
99 -10 0 -21 5 -24 10 -3 6 -17 10 -30 10 -13 0 -27 5 -30 10 -4 6 -82 10
-200 10 -118 0 -196 -4 -200 -10z"/>
<path d="M9034 9803 c-9 -6 -22 -9 -30 -6 -8 3 -23 -2 -33 -11 -10 -9 -20 -13
-24 -10 -12 13 -112 -46 -152 -88 -56 -60 -65 -80 -65 -143 0 -63 9 -83 65
-143 41 -44 136 -99 153 -88 6 3 15 -1 22 -9 8 -9 21 -13 32 -9 10 3 25 0 33
-6 17 -14 365 -14 379 0 6 6 20 10 32 10 13 0 26 5 29 10 3 6 14 10 24 10 28
0 110 46 148 82 47 45 63 82 63 143 0 61 -16 98 -63 143 -38 36 -120 82 -148
82 -10 0 -21 5 -24 10 -3 6 -16 10 -29 10 -12 0 -26 4 -32 10 -14 14 -360 18
-380 3z"/>
<path d="M3500 9793 c-74 -2 -139 -8 -144 -13 -6 -6 -25 -10 -42 -10 -18 0
-36 -4 -39 -10 -3 -5 -17 -10 -30 -10 -13 0 -27 -4 -30 -10 -3 -5 -16 -10 -29
-10 -13 0 -31 -9 -41 -20 -10 -11 -23 -20 -30 -20 -13 0 -64 -54 -82 -87 -7
-13 -13 -43 -13 -68 0 -25 6 -55 13 -68 18 -33 69 -87 82 -87 7 0 20 -9 30
-20 10 -11 28 -20 41 -20 13 0 26 -4 29 -10 3 -5 17 -10 30 -10 13 0 27 -4 30
-10 3 -5 16 -10 29 -10 12 0 26 -4 31 -9 14 -13 366 -18 385 -6 8 5 22 8 32 7
9 -2 19 2 23 8 3 5 14 10 24 10 33 0 114 49 168 102 l53 52 0 71 0 71 -53 52
c-54 53 -135 102 -168 102 -10 0 -21 5 -25 11 -3 6 -15 9 -25 6 -10 -3 -23 1
-30 9 -7 8 -26 13 -48 12 -20 -1 -97 -4 -171 -5z"/>
<path d="M6115 9790 c-3 -5 -17 -10 -30 -10 -13 0 -27 -4 -30 -10 -3 -5 -14
-10 -24 -10 -33 0 -114 -49 -168 -102 l-53 -52 0 -71 0 -71 53 -52 c54 -53
135 -102 168 -102 10 0 21 -4 24 -10 3 -5 17 -10 30 -10 13 0 27 -4 30 -10 4
-6 82 -10 200 -10 118 0 196 4 200 10 3 6 17 10 30 10 13 0 27 5 30 10 3 6 14
10 24 10 33 0 114 49 168 102 l53 52 0 71 0 71 -53 52 c-54 53 -135 102 -168
102 -10 0 -21 5 -24 10 -3 6 -17 10 -30 10 -13 0 -27 5 -30 10 -4 6 -82 10
-200 10 -118 0 -196 -4 -200 -10z"/>
<path d="M6115 8370 c-3 -5 -21 -10 -40 -10 -19 0 -37 -4 -40 -10 -3 -5 -14
-10 -24 -10 -23 0 -75 -26 -91 -45 -7 -8 -18 -15 -24 -15 -14 0 -54 -43 -74
-78 -16 -29 -13 -129 5 -143 7 -6 13 -17 13 -23 0 -15 42 -56 57 -56 6 0 16
-7 23 -15 16 -19 68 -45 91 -45 10 0 21 -4 24 -10 3 -5 21 -10 40 -10 19 0 37
-4 40 -10 4 -6 78 -10 190 -10 112 0 186 4 190 10 3 6 21 10 40 10 19 0 37 5
40 10 3 6 14 10 24 10 23 0 75 26 91 45 7 8 18 15 24 15 15 0 56 42 56 57 0 6
7 13 15 17 19 7 21 116 3 149 -20 34 -60 77 -74 77 -6 0 -17 7 -24 15 -16 19
-68 45 -91 45 -10 0 -21 5 -24 10 -3 6 -21 10 -40 10 -19 0 -37 5 -40 10 -4 6
-78 10 -190 10 -112 0 -186 -4 -190 -10z"/>
<path d="M9470 7392 c-47 -2 -89 -7 -94 -12 -6 -6 -34 -10 -62 -10 -29 0 -56
-4 -59 -10 -3 -5 -26 -10 -50 -10 -24 0 -47 -4 -50 -10 -3 -5 -14 -10 -24 -10
-10 0 -71 -27 -136 -60 -65 -33 -124 -60 -131 -60 -6 0 -38 -13 -69 -30 -31
-16 -63 -30 -70 -30 -7 0 -47 -18 -90 -40 -43 -22 -83 -40 -90 -40 -7 0 -39
-13 -70 -30 -31 -16 -63 -30 -70 -30 -7 0 -47 -18 -90 -40 -43 -22 -83 -40
-90 -40 -7 0 -39 -13 -70 -30 -31 -16 -63 -30 -69 -30 -16 0 -101 -43 -124
-62 -9 -8 -88 -50 -175 -92 -86 -43 -160 -82 -162 -87 -3 -4 -35 -22 -70 -39
-35 -17 -67 -35 -70 -40 -7 -11 -64 -40 -80 -40 -16 0 -73 -29 -81 -41 -3 -6
-16 -14 -29 -19 -53 -20 -55 -38 -55 -491 0 -268 4 -420 10 -424 7 -4 10 -422
10 -1220 0 -798 3 -1216 10 -1220 6 -4 10 -201 10 -559 0 -479 2 -555 15 -566
12 -10 25 -7 70 14 30 15 57 31 60 36 3 5 61 36 130 70 69 34 127 65 130 70 3
5 61 36 130 70 69 34 127 65 130 70 3 5 61 36 129 70 68 33 130 67 136 75 7 8
18 15 24 15 7 0 22 10 34 23 19 20 22 35 22 105 0 44 -4 84 -10 87 -6 4 -10
85 -10 210 0 125 -4 206 -10 210 -6 4 -10 55 -10 120 0 65 -4 116 -10 120 -5
3 -10 21 -10 40 0 19 5 37 10 40 6 3 10 21 10 40 0 19 -4 37 -10 40 -6 4 -10
85 -10 210 0 125 -4 206 -10 210 -17 10 -12 177 6 213 8 18 19 34 24 37 5 3
17 23 26 43 19 42 62 92 79 92 6 0 55 45 110 100 55 55 105 100 111 100 6 0
17 7 24 15 20 24 71 45 111 45 21 0 41 5 44 10 3 6 17 10 30 10 13 0 27 5 30
10 8 14 452 14 460 0 3 -5 19 -10 36 -10 29 0 58 -12 91 -39 10 -8 37 -23 60
-35 30 -15 49 -34 64 -63 11 -23 26 -49 34 -58 21 -26 60 -107 60 -126 0 -10
5 -21 10 -24 6 -4 10 -58 10 -130 0 -72 4 -126 10 -130 6 -3 10 -30 10 -60 0
-30 5 -57 10 -60 6 -3 10 -30 10 -60 0 -30 5 -57 10 -60 6 -3 10 -30 10 -60 0
-30 5 -57 11 -60 6 -4 9 -32 8 -65 -1 -36 2 -65 10 -74 7 -9 11 -37 10 -70 -1
-30 2 -61 8 -68 6 -7 14 -23 17 -35 7 -21 36 -33 36 -15 0 5 16 15 35 22 20 8
41 20 47 27 5 7 48 31 94 53 46 23 86 45 89 50 3 4 40 25 83 46 42 21 86 45
97 54 11 9 52 32 91 51 45 21 75 43 82 58 15 31 16 297 2 306 -6 4 -10 58 -10
130 0 72 -4 126 -10 130 -6 4 -10 68 -10 160 0 92 -4 156 -10 160 -6 3 -10 52
-10 110 0 58 -4 107 -10 110 -5 3 -10 32 -10 64 0 48 -7 72 -40 136 -22 43
-40 86 -40 96 0 10 -4 21 -10 24 -5 3 -10 17 -10 30 0 13 -4 27 -10 30 -5 3
-10 14 -10 24 0 22 -47 116 -65 131 -8 7 -15 19 -15 26 0 8 -6 14 -13 14 -7 0
-26 14 -42 30 -20 21 -38 30 -60 30 -17 0 -35 4 -40 9 -6 5 -21 11 -35 13 -22
3 -25 8 -28 52 -3 49 8 83 36 118 8 10 29 45 46 80 18 37 42 68 59 77 28 16
97 138 97 172 0 10 5 21 10 24 6 3 10 21 10 40 0 19 5 37 10 40 6 3 10 26 10
50 0 24 5 47 10 50 6 4 10 112 10 290 0 178 -4 286 -10 290 -5 3 -10 21 -10
39 0 19 -7 39 -15 46 -8 6 -37 58 -64 114 -28 56 -66 117 -86 136 -19 18 -35
39 -35 45 0 14 -182 195 -196 195 -7 0 -17 7 -24 15 -7 9 -33 25 -56 35 -24
11 -45 24 -48 29 -3 5 -14 7 -24 4 -10 -2 -24 2 -31 11 -7 8 -19 12 -27 9 -8
-3 -22 1 -32 8 -12 10 -41 13 -102 11z m-87 -904 c44 -25 117 -102 117 -125 0
-12 5 -25 10 -28 6 -4 10 -58 10 -130 0 -72 -4 -126 -10 -130 -5 -3 -10 -17
-10 -30 0 -13 -4 -27 -10 -30 -5 -3 -10 -14 -10 -24 0 -9 -20 -57 -45 -106
-33 -67 -62 -107 -117 -162 -40 -40 -78 -73 -84 -73 -6 0 -19 -9 -29 -20 -10
-11 -23 -20 -30 -20 -7 0 -20 -9 -30 -20 -10 -11 -24 -20 -30 -20 -7 0 -18 -7
-25 -15 -6 -8 -46 -31 -88 -51 -43 -21 -85 -44 -94 -52 -36 -30 -594 -302
-620 -302 -16 0 -28 -4 -28 -10 0 -5 -18 -10 -40 -10 -22 0 -40 -4 -40 -10 0
-5 -9 -10 -20 -10 -22 0 -70 44 -70 65 0 8 -4 15 -10 15 -7 0 -10 135 -9 388
0 348 2 390 18 416 19 34 65 64 98 65 12 1 25 6 28 11 3 6 15 10 25 10 11 0
35 9 55 20 20 11 44 20 55 20 10 0 22 5 25 10 3 6 15 10 25 10 11 0 35 9 55
20 20 11 41 20 48 20 8 0 76 32 152 70 76 39 144 70 150 70 7 0 56 23 110 50
54 28 106 50 116 50 10 0 21 5 24 10 3 6 15 10 25 10 11 0 35 9 55 20 20 11
49 20 65 20 16 0 32 5 35 10 9 14 121 12 148 -2z"/>
<path d="M3295 7440 c-3 -5 -21 -10 -40 -10 -19 0 -37 -4 -40 -10 -3 -5 -44
-10 -90 -10 -46 0 -87 -4 -90 -10 -3 -5 -17 -10 -30 -10 -13 0 -27 -4 -30 -10
-3 -5 -17 -10 -30 -10 -13 0 -27 -4 -30 -10 -3 -5 -21 -10 -40 -10 -19 0 -37
-4 -40 -10 -3 -5 -18 -10 -33 -10 -35 0 -202 -83 -232 -115 -13 -14 -29 -25
-35 -25 -7 0 -20 -9 -30 -20 -10 -11 -23 -20 -30 -20 -6 0 -29 -18 -50 -40
-21 -22 -44 -40 -50 -40 -6 0 -17 -16 -25 -35 -8 -20 -22 -43 -32 -52 -10 -9
-18 -21 -18 -28 0 -6 -16 -27 -35 -45 -43 -42 -65 -83 -65 -121 0 -15 -4 -31
-10 -34 -5 -3 -10 -17 -10 -30 0 -13 -4 -27 -10 -30 -5 -3 -10 -17 -10 -30 0
-13 -4 -27 -10 -30 -5 -3 -10 -35 -10 -70 0 -35 -4 -67 -10 -70 -5 -3 -10 -17
-10 -30 0 -13 -4 -27 -10 -30 -5 -3 -10 -21 -10 -40 0 -19 -4 -37 -10 -40 -5
-3 -10 -35 -10 -70 0 -35 -4 -67 -10 -70 -5 -3 -10 -26 -10 -50 0 -24 -4 -47
-10 -50 -5 -3 -10 -35 -10 -70 0 -35 -4 -67 -10 -70 -14 -8 -14 -512 0 -520 6
-4 10 -62 10 -140 0 -78 4 -136 10 -140 6 -3 10 -26 10 -50 0 -24 5 -47 10
-50 6 -3 10 -44 10 -90 0 -46 5 -87 10 -90 6 -3 10 -26 10 -50 0 -24 5 -47 10
-50 6 -3 10 -14 10 -25 0 -10 14 -44 30 -75 17 -31 30 -65 30 -75 0 -11 5 -22
10 -25 6 -3 10 -17 10 -30 0 -13 5 -27 10 -30 6 -3 10 -17 10 -30 0 -13 5 -27
10 -30 6 -3 10 -14 10 -24 0 -10 23 -62 50 -116 28 -54 50 -106 50 -116 0 -10
5 -21 10 -24 6 -3 10 -16 10 -29 0 -13 9 -31 20 -41 11 -10 20 -23 20 -30 0
-7 9 -20 20 -30 11 -10 20 -23 20 -30 0 -6 18 -29 40 -50 22 -21 40 -44 40
-50 0 -7 9 -20 20 -30 11 -10 20 -23 20 -29 0 -14 121 -136 135 -136 13 0 65
-52 65 -65 0 -5 50 -60 110 -120 61 -60 110 -114 110 -120 0 -14 172 -184 201
-199 13 -6 28 -21 34 -33 20 -40 37 -53 141 -103 57 -28 106 -55 109 -60 3 -5
52 -32 110 -60 58 -28 107 -55 110 -60 3 -5 34 -23 69 -40 35 -16 69 -37 76
-45 7 -8 18 -15 25 -15 6 0 20 -9 30 -20 10 -11 28 -20 41 -20 13 0 26 -5 29
-10 3 -6 14 -10 24 -10 23 0 75 -26 91 -45 7 -8 20 -15 30 -15 9 0 52 -18 95
-40 43 -22 90 -40 106 -40 15 0 31 -4 34 -10 3 -5 39 -10 80 -10 41 0 77 -4
80 -10 8 -13 232 -13 240 0 3 6 39 10 80 10 41 0 77 5 80 10 3 6 48 10 100 10
l94 0 15 -32 c18 -36 20 -64 6 -73 -5 -3 -10 -30 -10 -60 0 -30 5 -57 10 -60
6 -4 10 -61 10 -139 0 -126 1 -134 23 -154 13 -12 33 -22 45 -22 11 0 24 -4
27 -10 3 -5 14 -10 25 -10 10 0 44 -13 75 -30 31 -16 63 -30 70 -30 7 0 47
-18 90 -40 93 -48 125 -51 143 -13 15 32 16 79 2 88 -6 4 -10 55 -10 120 0 65
-4 116 -10 120 -6 4 -10 102 -10 260 0 158 -4 256 -10 260 -15 9 -14 1047 1
1062 8 8 8 13 0 17 -14 9 -15 292 -1 301 6 3 10 39 10 80 0 41 -4 77 -10 80
-6 4 -10 55 -10 118 l-1 112 -67 33 c-37 17 -72 32 -78 32 -5 0 -91 41 -189
90 -98 49 -184 90 -190 90 -6 0 -74 32 -150 70 -76 39 -144 70 -150 70 -6 0
-74 32 -150 70 -76 39 -143 70 -149 70 -20 0 -196 92 -196 102 0 6 -9 8 -20 5
-11 -3 -22 -1 -25 3 -12 19 -115 61 -142 58 l-28 -3 0 -370 c0 -348 1 -371 19
-392 10 -12 98 -61 195 -109 97 -48 184 -94 193 -102 25 -21 109 -62 126 -62
9 0 24 -7 34 -16 9 -9 37 -26 60 -38 23 -11 47 -31 54 -43 6 -13 18 -31 26
-40 8 -10 18 -26 22 -36 3 -11 15 -21 26 -24 24 -6 50 -56 50 -94 0 -15 5 -31
10 -34 15 -9 13 -181 -2 -208 -24 -42 -53 -69 -95 -88 -23 -10 -44 -23 -48
-28 -8 -14 -65 -41 -86 -41 -10 0 -21 -4 -24 -10 -4 -6 -75 -10 -180 -10 -105
0 -176 4 -180 10 -3 6 -23 10 -44 10 -26 0 -74 18 -156 60 -65 33 -124 60
-130 60 -18 0 -71 28 -85 45 -7 8 -18 15 -25 15 -6 0 -20 9 -30 20 -10 11 -23
20 -29 20 -15 0 -66 52 -66 67 0 7 -6 13 -13 13 -7 0 -26 14 -42 30 -16 17
-35 30 -42 30 -8 0 -16 8 -20 18 -8 22 -104 122 -118 122 -14 0 -125 112 -125
126 0 6 -9 19 -20 29 -11 10 -20 23 -20 30 0 6 -16 27 -35 45 -36 35 -65 82
-65 105 0 18 -28 71 -45 85 -8 7 -15 25 -15 40 0 27 -24 85 -40 95 -19 12 -40
70 -40 111 0 27 -10 62 -30 99 -16 31 -30 70 -30 85 0 16 -4 32 -10 35 -5 3
-10 17 -10 30 0 13 -4 27 -10 30 -5 3 -10 39 -10 80 0 41 -4 77 -10 80 -5 3
-10 35 -10 70 0 35 -4 67 -10 70 -6 4 -10 106 -10 274 l0 267 70 139 c39 76
70 151 70 165 0 15 9 35 20 45 11 10 20 26 20 36 0 9 14 43 30 74 17 31 30 65
30 74 0 18 49 71 66 71 6 0 21 11 34 25 30 32 116 75 151 75 15 0 31 5 34 10
3 6 52 10 110 10 58 0 107 -4 110 -10 3 -5 26 -10 50 -10 24 0 47 -4 50 -10 3
-5 14 -10 23 -10 22 0 237 -107 253 -126 6 -8 17 -14 24 -14 6 0 20 -9 30 -20
10 -11 23 -20 30 -20 6 0 29 -18 50 -40 21 -22 44 -40 50 -40 13 0 205 -192
205 -206 0 -6 14 -23 30 -39 17 -16 30 -34 30 -41 0 -6 6 -17 14 -23 19 -16
126 -231 126 -253 0 -9 5 -20 10 -23 6 -3 10 -17 10 -30 0 -13 5 -27 10 -30 6
-3 10 -21 10 -40 0 -19 5 -37 10 -40 6 -3 10 -19 10 -34 0 -59 17 -73 189
-158 91 -46 171 -83 177 -83 6 0 73 -31 149 -70 76 -38 144 -70 150 -70 7 0
47 -18 90 -40 43 -22 83 -40 90 -40 7 0 40 -14 74 -32 63 -32 84 -32 63 2 -8
14 -12 74 -12 189 0 103 -4 172 -10 176 -5 3 -10 21 -10 40 0 19 -4 37 -10 40
-5 3 -10 21 -10 40 0 19 -4 37 -10 40 -5 3 -10 26 -10 50 0 24 -4 47 -10 50
-5 3 -10 21 -10 40 0 19 -4 37 -10 40 -5 3 -10 30 -10 60 0 30 -4 57 -10 60
-5 3 -10 35 -10 70 0 35 -4 67 -10 70 -5 3 -10 14 -10 23 0 22 -107 237 -126
253 -8 6 -14 17 -14 24 0 7 -7 18 -15 25 -9 7 -24 32 -35 54 -10 23 -30 52
-44 65 -14 14 -26 30 -26 36 0 6 -18 29 -40 50 -22 21 -40 44 -40 50 0 6 -13
24 -30 40 -16 16 -30 34 -30 40 0 6 -40 51 -90 100 -49 49 -90 94 -90 100 0
17 -82 90 -120 108 -19 9 -51 32 -69 51 -19 20 -40 36 -46 36 -6 0 -24 14 -40
30 -16 17 -34 30 -40 30 -7 0 -20 9 -30 20 -10 11 -23 20 -30 20 -6 0 -22 11
-35 25 -13 14 -58 42 -99 62 -42 20 -84 43 -93 51 -31 26 -111 62 -139 62 -15
0 -31 5 -34 10 -3 6 -17 10 -30 10 -13 0 -27 5 -30 10 -3 6 -17 10 -30 10 -13
0 -27 5 -30 10 -3 6 -39 10 -80 10 -41 0 -77 5 -80 10 -3 6 -39 10 -80 10 -41
0 -77 5 -80 10 -3 6 -26 10 -50 10 -24 0 -47 5 -50 10 -3 6 -17 10 -30 10 -13
0 -27 5 -30 10 -4 6 -55 10 -120 10 -65 0 -116 -4 -120 -10z"/>
</g>
</svg>
